<svg width="228.09375" height="267.890625" xmlns="http://www.w3.org/2000/svg">
 <!--Unicode Character 'FOG' (U+1F32B)-->

 <g>
  <title>background</title>
  <rect fill="none" id="canvas_background" height="402" width="582" y="-1" x="-1"/>
 </g>
 <g>
  <title>Layer 1</title>
  <g id="svg_1">
   <g id="svg_2">
    <path fill="#ffffff" id="svg_3" d="m153.421906,110.578094q-17.718811,24.890701 -43.171906,24.890701q-10.968803,0 -30.304703,-7.73439q-19.335899,-7.734406 -29.601494,-7.734406q-5.062607,0 -12.234406,0.843796l-2.671898,-7.17189q16.031303,-10.968803 29.109398,-10.968803q9.281204,0 26.296906,6.398491q17.015602,6.398407 26.296791,6.398407q13.078201,0 31.078201,-10.406204l5.20311,5.484299zm47.67189,56.8125q-17.578201,24.75 -43.312592,24.75q-10.82811,0 -30.164001,-7.73439q-19.335999,-7.734299 -29.601601,-7.734299q-5.484406,0 -12.234406,0.843689l-2.671799,-7.031189q16.031204,-10.968811 29.109398,-10.968811q9.281204,0 26.296799,6.398499q17.01561,6.398407 26.296906,6.398407q12.796906,0 31.078094,-10.546906l5.203201,5.625zm-50.062592,51.609406q-17.718704,24.890594 -43.45311,24.890594q-10.828094,0 -30.163994,-7.734406q-19.335999,-7.734283 -29.601601,-7.734283q-5.203102,0 -12.375,0.843689l-2.5313,-7.171799q15.890697,-10.828201 29.109402,-10.828201q9.281296,0 26.367195,6.328201q17.085999,6.32811 26.367203,6.32811q12.796906,0 30.9375,-10.546906l5.343704,5.625zm-20.671799,-97.171906q-6.75,1.82811 -13.218811,1.82811q-9.281189,0 -26.296791,-6.398407q-17.015701,-6.398392 -26.296906,-6.398392q-4.218796,0 -8.718796,1.406189q8.4375,0.984406 27,8.296906q17.015701,6.75 27.421898,6.75q10.828094,0 20.109406,-5.484406zm47.25,56.8125q-6.328201,1.6875 -12.796906,1.6875q-9.281296,0 -26.296906,-6.328094q-17.015594,-6.328094 -26.296799,-6.328094q-4.35939,0 -8.578201,1.265594q8.296906,0.984406 26.859406,8.296906q16.875,6.75 27.281204,6.75q10.54689,0 19.828201,-5.343811zm-49.921906,51.609406q-6.75,1.828094 -12.9375,1.828094q-9.281204,0 -26.367203,-6.328094q-17.085899,-6.328094 -26.367195,-6.328094q-4.359406,0 -8.578102,1.265594q8.296898,0.984406 27,8.296906q16.875,6.75 27.281296,6.75q10.687408,0 19.968704,-5.484406z"/>
   </g>
  </g>
 </g>
</svg>