<svg width="95" height="95.99999999999999" xmlns="http://www.w3.org/2000/svg">
 <g>
  <title>background</title>
  <rect x="-1" y="-1" width="97" height="98" id="canvas_background" fill="none"/>
 </g>

 <g>
  <title>Layer 1</title>
  <path fill="#ffffff" d="m19.980021,4.48002c1.769999,-0.54 3.66,-0.35 5.48,-0.42c15.699999,0.1 31.4,0 47.090014,0.05c3.25,-0.31 4.919998,2.95 7.049988,4.789999c3.910011,4.35 8.660011,7.96 12.150002,12.660001c0.459999,17.130001 -0.010002,34.310001 0.220009,51.459999c0.580002,3.480003 -2.720009,5.470001 -4.75,7.699997c-4.169998,3.850006 -7.849998,8.220016 -12.169998,11.890007c-16.840015,0.479996 -33.730015,0 -50.590014,0.229996c-1.889999,-0.209999 -4.26,0.520004 -5.66,-1.139999c-4.25,-4.079987 -8.23,-8.439987 -12.53,-12.469994c-1.37,-1.530006 -3.54,-2.969994 -3.24,-5.32c0.21,-17.440006 -0.22,-34.920006 0.2,-52.350006c1.96,-2.92 4.789999,-5.110001 7.19,-7.64c3.25,-3.08 6.14,-6.55 9.56,-9.44z" id="svg_2"/>
  <path fill="#0897e5" d="m21.420019,5.99002c17.379999,-0.14 34.770002,-0.18 52.150003,0.02c-2.550003,4.43 -5.220001,8.81 -7.959999,13.130001c-0.730003,1.6 -2.680004,1.08 -4.060005,1.209999c-10.019997,-0.129999 -20.049999,0.050001 -30.069998,-0.07c-1.540001,0.24 -2.16,-1.449999 -2.91,-2.42c-2.43,-3.929999 -4.870001,-7.849999 -7.150002,-11.87z" id="svg_3"/>
  <path fill="#0897e5" d="m6.20002,20.920019c4.42,-4.74 8.91,-9.429999 13.780001,-13.709999c2.789999,4.96 6.029999,9.67 8.709999,14.690001c-2.52,2.889999 -5.24,5.609999 -8.139999,8.129999c-4.820001,-2.98 -9.68,-5.9 -14.35,-9.110001z" id="svg_4"/>
  <path fill="#0897e5" d="m74.980026,7.17002c4.829994,4.41 9.369995,9.13 13.93,13.820001c-4.800003,2.98 -9.460007,6.209999 -14.490005,8.789999c-3.019989,-2.32 -5.62999,-5.110001 -8.080002,-8.01c2.590004,-5.039999 6.070007,-9.549999 8.640007,-14.599999z" id="svg_5"/>
  <path fill="#ffffff" d="m69.375023,19.89002c2.290001,-3.35 5.18,-6.240001 8.419998,-8.68c-2.309998,3.33 -5.18,6.25 -8.419998,8.68z" id="svg_6"/>
  <path fill="#ffffff" d="m70.180023,23.555017c2.87001,-3.75 6.289993,-7.059999 9.989998,-9.990001c-2.799988,3.81 -6.150002,7.23 -9.989998,9.990001z" id="svg_7"/>
  <path fill="#6be5ff" d="m14.70002,25.170019c2.620001,-3.349998 5.66,-6.379999 9,-9.009998c-2.42,3.519999 -5.469999,6.589998 -9,9.009998z" id="svg_8"/>
  <path fill="#ffffff" d="m76.460022,27.160021c2.43,-3.190001 5.279999,-6.070002 8.599998,-8.34c-2.379997,3.24 -5.309998,6.039999 -8.599998,8.34z" id="svg_9"/>
  <path fill="#0897e5" d="m31.09502,22.570021c10.989998,-0.35 22.07,-0.33 33.060001,-0.01c3.57,2.74 6.799995,6.02 9.559998,9.579998c0.580002,10.27 0.090004,20.600002 0.25,30.900002c0.340004,2.810001 -2.400002,4.429996 -4,6.310001c-2.139999,1.87001 -3.870003,4.480011 -6.509998,5.639999c-8.93,0.510002 -17.900002,-0.009995 -26.850002,0.220001c-2.259998,-0.190002 -5.079998,0.529999 -6.769999,-1.409988c-2.9,-2.87001 -6.059999,-5.560013 -8.43,-8.910011c-0.15,-10.900002 -0.360001,-21.860001 0.120001,-32.750004c2.73,-3.579998 6.01,-6.819998 9.57,-9.569998z" id="svg_10"/>
  <path fill="#0897e5" d="m4.90002,22.62002c4.9,2.75 9.619999,5.809999 14.420001,8.73c0.75,5.190001 0.279999,10.430002 0.379999,15.65c-0.110001,6.25 0.280001,12.510002 -0.23,18.740002c-4.700001,3.120003 -9.48,6.130013 -14.47,8.760002c-0.26,-17.290005 -0.05,-34.590004 -0.1,-51.880003z" id="svg_11"/>
  <path fill="#0897e5" d="m75.680023,31.350019c4.800003,-2.93 9.529999,-5.98 14.44001,-8.73c-0.060013,17.300001 0.139984,34.6 -0.12001,51.9c-4.93,-2.709999 -9.769997,-5.599998 -14.420006,-8.769997c-0.610001,-5.900002 -0.159996,-11.830002 -0.279984,-17.750004c0.119987,-5.549999 -0.400017,-11.129997 0.37999,-16.65z" id="svg_12"/>
  <path fill="#0897e5" d="m6.20002,76.240021c4.71,-2.970001 9.440001,-5.900002 14.200001,-8.790001c2.889999,2.449997 5.549999,5.150002 8.139999,7.910004c-2.23,5.300003 -5.889999,9.809998 -8.719999,14.779999c-4.450001,-4.729996 -9.31,-9.050003 -13.620001,-13.900002z" id="svg_13"/>
  <path fill="#0897e5" d="m66.340019,75.910027c2.470001,-3.070007 5.290001,-5.830009 8.260002,-8.410004c4.739998,2.829994 9.440002,5.739998 14.07,8.75c-4.439995,4.790001 -9.020004,9.469994 -13.919998,13.790001c-0.470001,-1.010002 -0.949989,-2.020004 -1.420006,-3.030006c4.620003,-3.019997 8.480003,-7.029991 11.970016,-11.259995c-4.310013,3.379997 -8.200012,7.25 -12.070007,11.129997c-2.400009,-3.599998 -4.679993,-7.260002 -6.890007,-10.969994z" id="svg_14"/>
  <path fill="#ffffff" d="m10.33002,78.830017c2.13,-3.189995 4.85,-5.969994 8.06,-8.079994c-2.309999,3.040001 -5.030001,5.769997 -8.06,8.079994z" id="svg_15"/>
  <path fill="#ffffff" d="m70.330017,80.613358c2.43,-3.5 5.5,-6.519997 8.990005,-8.949997c-2.580002,3.370003 -5.62999,6.360001 -8.990005,8.949997z" id="svg_16"/>
  <path fill="#0897e5" d="m21.400021,91.180023c3.24,-4.580002 5.33,-10.260002 9.279999,-14.169991c11.190002,-0.310013 22.450001,-0.330009 33.649998,0.009987c3.860001,4.030014 6.07,9.489998 9.260002,14.100014c-17.399998,0.199989 -34.790001,0.07 -52.189999,0.05999z" id="svg_18"/>
  <path fill="#ffffff" d="m14.825019,25.170019c2.620002,-3.349998 5.660001,-6.379999 9.000001,-9.009998c-2.42,3.519999 -5.469999,6.589998 -9.000001,9.009998z" id="svg_20"/>
  <path fill="#ffffff" d="m9.324909,21.169901c3.25068,-4.0935 7.022461,-7.79598 11.16646,-11.009691c-3.002539,4.30123 -6.78673,8.052589 -11.16646,11.009691z" id="svg_21"/>
  <path fill="#ffffff" d="m11.699545,23.419775c3.190082,-3.92304 6.891541,-7.47134 10.95829,-10.551219c-2.946568,4.122119 -6.660209,7.717265 -10.95829,10.551219z" id="svg_22"/>
  <path fill="#ffffff" d="m72.03315,26.336439c3.008163,-3.783689 6.498512,-7.205959 10.333344,-10.176439c-2.778534,3.9757 -6.28038,7.44315 -10.333344,10.176439z" id="svg_23"/>
  <path fill="#ffffff" d="m68.200043,77.836418c2.389542,-3.009117 5.162163,-5.730804 8.208374,-8.093185c-2.207138,3.161819 -4.988861,5.919441 -8.208374,8.093185z" id="svg_24"/>
  <path fill="#ffffff" d="m71.866501,83.961632c2.959633,-3.706345 6.393692,-7.05864 10.166649,-9.968376c-2.733704,3.894417 -6.179062,7.290962 -10.166649,9.968376z" id="svg_25"/>
  <path fill="#ffffff" d="m12.3468,80.846581c2.87,-3.75 6.290001,-7.059998 9.99,-9.989998c-2.799999,3.80999 -6.15,7.229996 -9.99,9.989998z" id="svg_27"/>
  <path fill="#ffffff" d="m14.53326,83.336327c3.00815,-3.783684 6.49851,-7.205948 10.33333,-10.176437c-2.778521,3.975708 -6.280371,7.443153 -10.33333,10.176437z" id="svg_29"/>
  <path fill="#ffffff" d="m17.376801,85.826576c2.43,-3.190002 5.279999,-6.07 8.6,-8.339996c-2.380001,3.239998 -5.310001,6.039993 -8.6,8.339996z" id="svg_30"/>
  <path fill="#ffffff" d="m17.835131,27.493349c2.429998,-3.189999 5.279999,-6.07 8.599998,-8.339998c-2.37999,3.24 -5.309999,6.039999 -8.599998,8.339998z" id="svg_31"/>
 </g>
</svg>